<?xml version="1.0" encoding="UTF-8"?>
<svg version="1.1" xmlns="http://www.w3.org/2000/svg" width="512" height="512">
<path d="M0 0 C1.11525039 -0.00445784 2.23050078 -0.00891569 3.37954664 -0.01350862 C5.21744662 -0.01323207 5.21744662 -0.01323207 7.09247589 -0.01294994 C9.04500739 -0.01846498 9.04500739 -0.01846498 11.03698397 -0.02409142 C14.65328437 -0.03410378 18.26956817 -0.037827 21.88588047 -0.04048073 C25.78519711 -0.04438613 29.68450064 -0.0539644 33.5838089 -0.0626936 C43.00311703 -0.08245282 52.42242623 -0.09252418 61.84174991 -0.10142139 C66.27925356 -0.10580575 70.71675602 -0.11117223 75.15425873 -0.11641026 C89.90917208 -0.13342307 104.66408469 -0.14791626 119.41900635 -0.155159 C123.24770356 -0.15706885 127.07640077 -0.15898918 130.90509796 -0.16094494 C132.33247846 -0.16167055 132.33247846 -0.16167055 133.78869492 -0.16241082 C149.19657012 -0.17070739 164.6043676 -0.19603777 180.01220888 -0.22852562 C195.83708868 -0.26162024 211.66192901 -0.27960999 227.48684359 -0.28280324 C236.36946971 -0.28496626 245.25198253 -0.29368434 254.13457489 -0.31926441 C261.70113407 -0.34100437 269.26755242 -0.34900571 276.83413929 -0.33929763 C280.69187144 -0.33476225 284.54931324 -0.33659428 288.40700531 -0.35605907 C292.5979378 -0.37702175 296.7882304 -0.36667547 300.97919464 -0.35352612 C302.18661552 -0.36449536 303.3940364 -0.37546461 304.63804579 -0.38676625 C319.65825073 -0.27332082 332.40013405 5.58106881 343.37189484 15.73578358 C352.38964495 25.69423425 357.65971563 37.89999806 357.6751976 51.30975246 C357.67903875 52.55997964 357.68287989 53.81020681 357.68683743 55.09831965 C357.68605724 56.48305907 357.68517846 57.86779843 357.68421173 59.25253773 C357.68679615 60.7256927 357.68980953 62.19884698 357.69321513 63.67200029 C357.70127944 67.72123374 357.70307439 71.77044946 357.7038126 75.81968999 C357.70566416 80.18659296 357.71321205 84.55348675 357.71994781 88.92038441 C357.73352796 98.47010786 357.73955545 108.01982712 357.74395847 117.56955862 C357.74672162 123.53352065 357.75095913 129.49748106 357.75546265 135.46144199 C357.76765525 151.97667877 357.77795435 168.49191424 357.78133774 185.00715542 C357.7815573 186.06411746 357.78177687 187.1210795 357.78200309 188.21007069 C357.78222137 189.26955152 357.78243965 190.32903235 357.78266454 191.42061865 C357.783108 193.56750306 357.78355457 195.71438746 357.78400421 197.86127186 C357.78422564 198.92619902 357.78444707 199.99112619 357.78467521 201.08832388 C357.7886223 218.33975342 357.80607366 235.5911407 357.82936373 252.84255393 C357.85308698 270.55797142 357.86554004 288.27336772 357.86670566 305.98880136 C357.86762191 315.93384978 357.87336158 325.87884314 357.89152527 335.82387638 C357.90693942 344.29329021 357.91203897 352.76263197 357.90378717 361.23205717 C357.89988524 365.55137732 357.90078788 369.8705524 357.91484451 374.18985462 C357.92761088 378.14898679 357.92636205 382.10786526 357.9142538 386.06699722 C357.91230152 387.49435813 357.91535345 388.92173719 357.92409816 390.34907265 C358.01995355 407.06160902 353.80551169 421.56940955 342.02814484 433.88031483 C333.11009766 441.97105889 321.31231004 448.24576218 309.08753967 448.26844215 C307.97228928 448.2729 306.85703889 448.27735784 305.70799303 448.28195077 C304.48272638 448.28176641 303.25745973 448.28158205 301.99506378 448.2813921 C300.69337612 448.28506879 299.39168845 448.28874547 298.05055571 448.29253358 C294.4342553 448.30254594 290.8179715 448.30626915 287.2016592 448.30892289 C283.30234256 448.31282829 279.40303904 448.32240656 275.50373077 448.33113575 C266.08442264 448.35089497 256.66511344 448.36096633 247.24578977 448.36986354 C242.80828611 448.3742479 238.37078365 448.37961438 233.93328094 448.38485241 C219.17836759 448.40186523 204.42345498 448.41635841 189.66853333 448.42360115 C185.83983611 448.425511 182.0111389 448.42743134 178.18244171 448.42938709 C176.75506122 448.4301127 176.75506122 448.4301127 175.29884475 448.43085297 C159.89096955 448.43914955 144.48317207 448.46447993 129.07533079 448.49696777 C113.250451 448.53006239 97.42561067 448.54805214 81.60069609 448.55124539 C72.71806996 448.55340842 63.83555714 448.5621265 54.95296478 448.58770657 C47.38640561 448.60944652 39.81998725 448.61744786 32.25340039 448.60773978 C28.39566823 448.6032044 24.53822643 448.60503643 20.68053436 448.62450123 C16.48960187 448.6454639 12.29930927 448.63511762 8.10834503 448.62196827 C6.90092415 448.63293752 5.69350327 448.64390676 4.44949389 448.65520841 C-10.57071106 448.54176297 -23.31259438 442.68737335 -34.28435516 432.53265858 C-43.30210528 422.57420791 -48.57217596 410.36844409 -48.58765793 396.95868969 C-48.59149907 395.70846252 -48.59534022 394.45823535 -48.59929776 393.1701225 C-48.59851757 391.78538309 -48.59763879 390.40064372 -48.59667206 389.01590443 C-48.59925648 387.54274945 -48.60226986 386.06959517 -48.60567546 384.59644186 C-48.61373977 380.54720841 -48.61553472 376.4979927 -48.61627293 372.44875216 C-48.61812449 368.08184919 -48.62567238 363.71495541 -48.63240814 359.34805775 C-48.64598828 349.79833429 -48.65201578 340.24861504 -48.6564188 330.69888353 C-48.65918195 324.7349215 -48.66341945 318.77096109 -48.66792297 312.80700016 C-48.68011558 296.29176339 -48.69041468 279.77652791 -48.69379807 263.26128674 C-48.69401763 262.2043247 -48.6942372 261.14736265 -48.69446342 260.05837146 C-48.69468169 258.99889063 -48.69489997 257.93940981 -48.69512486 256.8478235 C-48.69556833 254.7009391 -48.69601489 252.5540547 -48.69646454 250.4071703 C-48.69668597 249.34224313 -48.6969074 248.27731596 -48.69713554 247.18011828 C-48.70108263 229.92868873 -48.71853399 212.67730145 -48.74182406 195.42588823 C-48.76554731 177.71047073 -48.77800037 159.99507443 -48.77916598 142.27964079 C-48.78008223 132.33459237 -48.7858219 122.38959901 -48.8039856 112.44456577 C-48.81939975 103.97515194 -48.8244993 95.50581018 -48.81624749 87.03638498 C-48.81234556 82.71706483 -48.81324821 78.39788976 -48.82730484 74.07858753 C-48.84007121 70.11945536 -48.83882238 66.16057689 -48.82671413 62.20144494 C-48.82476185 60.77408402 -48.82781378 59.34670497 -48.83655849 57.9193695 C-48.93241387 41.20683314 -44.71797201 26.69903261 -32.94060516 14.38812733 C-24.02255798 6.29738326 -12.22477037 0.02267997 0 0 Z M-19.45623016 33.13422108 C-23.80603188 40.36493722 -26.57614314 46.61615678 -26.59045124 55.06176567 C-26.59490908 56.28213463 -26.59936693 57.50250359 -26.60395986 58.75985342 C-26.60387056 60.11609305 -26.60368072 61.47233267 -26.60340118 62.82857227 C-26.60670085 64.26786601 -26.61042664 65.70715883 -26.61454266 67.14645046 C-26.62455922 71.10672855 -26.62827891 75.06699149 -26.63093197 79.02728045 C-26.63483608 83.29672395 -26.64441438 87.56615547 -26.65314484 91.83559132 C-26.67290681 102.14922944 -26.68297537 112.46286855 -26.69187263 122.77652088 C-26.69625618 127.6340508 -26.70162284 132.49157963 -26.7068615 137.3491087 C-26.72387392 153.4980077 -26.73836775 169.64690602 -26.74561024 185.79581261 C-26.74752012 189.9864963 -26.74944045 194.17717998 -26.75139618 198.36786366 C-26.75187992 199.4094314 -26.75236366 200.45099915 -26.75286206 201.52412956 C-26.76116107 218.39411206 -26.78649576 235.26402363 -26.81897686 252.13397516 C-26.85205651 269.45611642 -26.87005984 286.77822165 -26.87325448 304.10039467 C-26.87541879 313.82526735 -26.8841559 323.55003661 -26.90971565 333.2748785 C-26.93143505 341.55768198 -26.93946698 349.84035691 -26.92974887 358.12318564 C-26.92520769 362.34735753 -26.92707965 366.57126424 -26.94651031 370.79539967 C-26.96416814 374.66766824 -26.96312335 378.53947872 -26.94761302 382.41175234 C-26.94524089 383.80751798 -26.94953998 385.20331556 -26.96144167 386.59903247 C-27.05043439 397.73087618 -25.41086258 407.50803802 -18.22185516 416.34906483 C-11.54532709 423.0994483 -4.1786481 426.17353457 5.22134972 426.38869667 C7.51213057 426.40097363 9.80298615 426.40225659 12.09378815 426.39491749 C13.99208632 426.40065581 13.99208632 426.40065581 15.92873394 426.40651006 C19.43006222 426.41677709 22.93128794 426.41461156 26.43262458 426.41032946 C30.21322463 426.40785988 33.99380014 426.41687929 37.77439117 426.42436695 C45.1766457 426.43710958 52.57886395 426.43890818 59.9811276 426.43656669 C65.99871783 426.43478286 72.01629705 426.43653456 78.03388596 426.44079113 C78.890701 426.44138632 79.74751605 426.44198151 80.63029519 426.44259473 C82.37098288 426.4438065 84.11167056 426.44502063 85.85235824 426.44623711 C102.17290076 426.457111 118.49342261 426.45495089 134.81396629 426.44885226 C149.73867683 426.44368341 164.66332209 426.45493797 179.58801971 426.47395048 C194.9191692 426.49333079 210.25028781 426.50158453 225.58144963 426.49782723 C234.18612829 426.49591546 242.79075141 426.49840043 251.39542007 426.51254177 C258.72080459 426.524459 266.04609935 426.52585664 273.3714851 426.5137516 C277.10729864 426.50786527 280.84294803 426.5067566 284.57875061 426.51875401 C288.63255839 426.53162114 292.68597599 426.52114256 296.73978424 426.50844288 C297.9149878 426.51581716 299.09019136 426.52319145 300.30100715 426.5307892 C311.28552862 426.45839443 319.66217512 424.06026088 327.54376984 416.13422108 C335.06273517 406.12500013 335.84109411 397.25640245 335.81119537 385.07910633 C335.81493434 383.63722202 335.81953684 382.19533973 335.82492602 380.75346065 C335.83714108 376.79993866 335.83689732 372.84650139 335.83453727 368.89296484 C335.83412872 364.62561239 335.84517187 360.35828697 335.8546524 356.09094715 C335.87125529 347.7335086 335.87676163 339.37609826 335.87787716 331.0186446 C335.87882799 324.2239929 335.88294004 317.42935049 335.88927841 310.63470173 C335.90688904 291.3636414 335.91611759 272.09260334 335.91461746 252.8215349 C335.91453755 251.78293423 335.91445764 250.74433356 335.91437531 249.67426014 C335.91425266 248.11445327 335.91425266 248.11445327 335.91412754 246.52313516 C335.91331474 229.6727385 335.93245142 212.82243126 335.96065204 195.97206047 C335.98939071 178.66337943 336.00319178 161.35474198 336.00146449 144.04603648 C336.00080092 134.3312752 336.0062788 124.61660764 336.02782059 114.90186787 C336.04604533 106.63010928 336.05036911 98.35848691 336.03680174 90.08671692 C336.03027856 85.86860513 336.03013125 81.65075456 336.04750824 77.43266773 C336.06327303 73.56606155 336.06034099 69.69992299 336.04293998 65.83332798 C336.03987753 64.43967432 336.04347389 63.04598547 336.05466013 61.65237334 C336.13802345 50.52360957 334.48681456 40.76368382 327.31330109 31.91937733 C321.82898205 26.38663164 315.1555001 22.45625961 307.29230499 21.9071703 C306.15067902 21.91764393 305.00905304 21.92811756 303.83283234 21.93890858 C302.58888702 21.94535389 301.34494171 21.9517992 300.06330109 21.95843983 C298.13550812 21.98357655 298.13550812 21.98357655 296.16876984 22.00922108 C294.20617218 22.02275623 294.20617218 22.02275623 292.20392609 22.03656483 C288.98368614 22.06007023 285.76382276 22.0929302 282.54376984 22.13422108 C282.54322507 22.80990478 282.5426803 23.48558847 282.54211903 24.18174744 C282.52715082 40.62370909 282.48470269 57.06534686 282.41167927 73.50714874 C282.37702804 81.45831017 282.35167359 89.40929821 282.3482132 97.36053944 C282.34517346 104.29097848 282.32468209 111.22110875 282.28324527 118.15142852 C282.26191394 121.82098082 282.24931502 125.49009412 282.25761604 129.15970898 C282.26655682 133.25670781 282.23653503 137.3525337 282.20319366 141.44940662 C282.21613213 143.27388828 282.21613213 143.27388828 282.22933197 145.13522816 C282.11758128 153.30440253 282.11758128 153.30440253 279.29184723 157.39084339 C274.91102758 160.17003121 271.56893285 159.94027762 266.54376984 159.13422108 C262.75043805 158.01552425 259.2078139 156.48854193 255.60236359 154.87250233 C253.53423578 153.99240067 251.46586914 153.11286008 249.39728546 152.23383045 C246.17836769 150.8410082 242.96387543 149.43906143 239.75397491 148.0255785 C236.63016214 146.65800191 233.49284216 145.32626481 230.35236359 143.99750233 C229.40211807 143.56641666 228.45187256 143.135331 227.47283173 142.69118214 C222.93148578 140.78755263 219.74743669 139.61505641 214.94806671 141.15570545 C213.46746171 141.78663374 211.99899446 142.44677438 210.54376984 143.13422108 C209.03401617 143.74202987 207.52233428 144.34506886 206.00885773 144.94354725 C204.42725852 145.60287276 202.84647553 146.26415894 201.26642609 146.92718983 C199.51874487 147.64747872 197.77068615 148.36685223 196.02228546 149.08539295 C193.30900731 150.20276956 190.59831803 151.32506683 187.89362335 152.4630785 C185.2534768 153.57158085 182.60486125 154.65728715 179.95392609 155.73968983 C179.15882126 156.08025913 178.36371643 156.42082844 177.54451752 156.77171803 C172.13855271 158.94980063 166.33612869 160.6351257 160.54376984 159.13422108 C157.789711 157.39423084 157.789711 157.39423084 155.54376984 154.13422108 C154.78939021 149.91116406 154.85399088 145.72985134 154.88434601 141.44940662 C154.8738623 140.16120518 154.8633786 138.87300373 154.85257721 137.54576588 C154.82445424 134.02120408 154.82689798 130.49725134 154.83487105 126.97261119 C154.83799791 123.28630314 154.81295664 119.60018847 154.79091644 115.91396046 C154.75347479 108.93714663 154.7413284 101.96052771 154.73829204 94.98362333 C154.73360132 87.03918741 154.70067765 79.09494676 154.66539419 71.15059698 C154.59346022 54.81181667 154.55694304 38.47315665 154.54376984 22.13422108 C134.37664548 22.04065918 114.20956536 21.97018384 94.04226875 21.92697239 C84.67762356 21.90637267 75.31311346 21.87830172 65.94855499 21.83246326 C57.78363431 21.79251605 49.61881149 21.76676945 41.45379579 21.7578671 C37.13295203 21.75266566 32.81238817 21.74049478 28.49163437 21.71130085 C24.41881001 21.68400691 20.34637897 21.67580407 16.27347183 21.68179035 C14.78442238 21.68069633 13.2953588 21.67282586 11.80638885 21.65739918 C-0.44464933 21.53677276 -11.23158694 23.2188589 -19.45623016 33.13422108 Z M176.54376984 22.13422108 C176.54376984 58.43422108 176.54376984 94.73422108 176.54376984 132.13422108 C181.0006425 131.24284654 184.8145016 129.92187398 188.96955109 128.19281483 C190.42049496 127.60306087 191.87167441 127.01388621 193.32306671 126.4252367 C195.58993424 125.50079013 197.85483845 124.57231544 200.11579132 123.63348866 C202.3121158 122.72396264 204.51503487 121.83226805 206.71955109 120.94281483 C207.71683983 120.52098171 207.71683983 120.52098171 208.73427582 120.09062672 C216.86777903 116.84397987 223.05977 117.8485743 230.87580109 121.19672108 C231.63422806 121.50746571 232.39265503 121.81821033 233.17406464 122.13837147 C235.57378988 123.12391464 237.96518946 124.12790741 240.35626984 125.13422108 C242.7663451 126.13739717 245.1779713 127.13652659 247.59203339 128.13007069 C249.08822557 128.74698543 250.58192809 129.3699814 252.07277679 129.99969959 C255.05536634 131.2387964 257.27997254 132.13422108 260.54376984 132.13422108 C260.54376984 95.83422108 260.54376984 59.53422108 260.54376984 22.13422108 C232.82376984 22.13422108 205.10376984 22.13422108 176.54376984 22.13422108 Z " fill="#000000" transform="translate(101.45623016357422,31.865778923034668)"/>
<path d="M0 0 C1.15390028 -0.00551503 1.15390028 -0.00551503 2.33111167 -0.01114148 C4.92279448 -0.02220223 7.51443723 -0.0260262 10.10614014 -0.02983093 C11.95874663 -0.03609379 13.81135185 -0.04274043 15.66395569 -0.04974365 C20.70746333 -0.06717011 25.75096147 -0.07770993 30.79449177 -0.08594918 C33.94406869 -0.09109593 37.09364264 -0.09717181 40.24321747 -0.10346031 C50.09327142 -0.12251712 59.94331785 -0.13674712 69.7933867 -0.14507228 C81.17141643 -0.15484702 92.54925174 -0.18117072 103.92721295 -0.22157317 C112.71623567 -0.25171361 121.50520259 -0.26653919 130.294276 -0.26985329 C135.54607684 -0.27220618 140.79767009 -0.28119759 146.04941559 -0.30631447 C150.9906327 -0.32956386 155.93150509 -0.33384101 160.87276268 -0.32355309 C162.68599531 -0.32305685 164.49924472 -0.32940311 166.31242561 -0.34310913 C168.78918295 -0.36078299 171.26469714 -0.35374476 173.74145508 -0.34057617 C174.81627699 -0.35703004 174.81627699 -0.35703004 175.91281247 -0.37381631 C180.91600042 -0.30965035 183.77103557 1.00624254 187.62469482 4.14717102 C189.48196098 7.86170334 189.20970572 12.10296527 188.62469482 16.14717102 C186.43446565 18.9714139 184.79452276 20.56225705 181.62469482 22.14717102 C179.15724672 22.25345014 176.71748185 22.29937777 174.24938965 22.30107117 C173.4801228 22.30545342 172.71085595 22.30983567 171.91827798 22.31435072 C169.32659941 22.3277631 166.73495485 22.33392304 164.14324951 22.34004211 C162.29064275 22.34794117 160.43803754 22.35620999 158.58543396 22.36482239 C152.48916091 22.39106539 146.39288091 22.40635233 140.29656982 22.42060852 C138.19977056 22.42596727 136.10297135 22.43134478 134.00617218 22.43674088 C125.28534923 22.45837297 116.56452815 22.47711043 107.84368515 22.48836327 C95.33637316 22.50460679 82.82937163 22.53779068 70.32217669 22.59476411 C61.53315559 22.63343824 52.74421762 22.65299297 43.95511365 22.65828383 C38.70325948 22.66194076 33.45173628 22.67399835 28.19997406 22.70638657 C23.25870496 22.7364226 18.31796784 22.74279494 13.37662697 22.73100281 C11.56338584 22.7307817 9.75012035 22.73911761 7.93696404 22.75665665 C5.45997911 22.77931201 2.98492916 22.77107164 0.50793457 22.75517273 C-0.20861337 22.76905482 -0.92516131 22.7829369 -1.66342282 22.79723966 C-7.27854237 22.70851606 -9.56905984 20.97889558 -13.37530518 17.14717102 C-14.98960441 13.91857255 -14.97101174 10.63723449 -14.37530518 7.14717102 C-10.70562781 0.75262127 -6.88595461 -0.00174991 0 0 Z " fill="#000000" transform="translate(131.37530517578125,244.8528289794922)"/>
<path d="M0 0 C1.29964691 -0.0071553 2.59929382 -0.01431061 3.93832397 -0.02168274 C5.38191199 -0.02452297 6.82550027 -0.02723471 8.26908875 -0.02983093 C9.7868719 -0.03609626 11.30465353 -0.04274312 12.82243347 -0.04974365 C17.80944248 -0.07077618 22.79645177 -0.08114447 27.78349304 -0.09111023 C29.50047001 -0.09515792 31.21744681 -0.09927485 32.93442345 -0.10346031 C41.0000594 -0.12250928 49.0656862 -0.13674159 57.13134032 -0.14507228 C66.4418309 -0.15484757 75.75208391 -0.18117583 85.06249076 -0.22157317 C92.25919049 -0.25172791 99.45582209 -0.2665405 106.65258378 -0.26985329 C110.9508828 -0.2722043 115.24892794 -0.28117133 119.54715919 -0.30631447 C123.59130401 -0.32958945 127.63502768 -0.33383092 131.67922211 -0.32355309 C133.16188393 -0.32305749 134.64456645 -0.32938508 136.12716484 -0.34310913 C138.15452357 -0.36082302 140.18206511 -0.35133825 142.20947266 -0.34057617 C143.34306874 -0.34296453 144.47666483 -0.34535288 145.64461231 -0.34781361 C149.5580584 0.26702038 151.71439815 1.6980721 154.79521179 4.14717102 C157.26304339 7.84891841 157.47593911 10.85210577 156.79521179 15.14717102 C153.79521179 20.64717102 153.79521179 20.64717102 150.79521179 22.14717102 C148.71613277 22.24994314 146.63369705 22.28670089 144.55209351 22.29434204 C143.58089474 22.29985707 143.58089474 22.29985707 142.59007579 22.30548352 C140.41064379 22.31653661 138.23125944 22.32036692 136.05180359 22.32417297 C134.49313708 22.33043638 132.93447208 22.33708306 131.37580872 22.34408569 C127.13399637 22.36150626 122.89219531 22.37205023 118.65035605 22.38029122 C116.00130565 22.38543891 113.35225876 22.39151473 110.70321083 22.39780235 C102.41812575 22.41685698 94.13304961 22.4310878 85.84794682 22.43941432 C76.27821679 22.44919019 66.70871784 22.4755176 57.13906926 22.51591522 C49.74622864 22.54605468 42.35345434 22.56088111 34.96055347 22.56419533 C30.54322587 22.56654822 26.12614508 22.5755394 21.70888329 22.60065651 C17.55313259 22.6239046 13.39779177 22.62818379 9.24199295 22.61789513 C7.71698584 22.61739886 6.19195878 22.62374601 4.66701317 22.63745117 C2.58394325 22.65512439 0.50235159 22.64808866 -1.58071899 22.63491821 C-2.74603307 22.63730657 -3.91134714 22.63969492 -5.11197376 22.64215565 C-8.85978256 22.04234348 -10.51374658 20.77060158 -13.20478821 18.14717102 C-15.06334102 14.43006539 -14.7838726 10.19439821 -14.20478821 6.14717102 C-10.07601419 0.67933515 -6.57119331 0.02479712 0 0 Z " fill="#000000" transform="translate(238.2047882080078,297.8528289794922)"/>
<path d="M0 0 C1.24923248 -0.00860046 2.49846497 -0.01720093 3.78555298 -0.02606201 C5.17768818 -0.03049737 6.56982383 -0.03479571 7.96195984 -0.03897095 C9.42210587 -0.04687101 10.88224995 -0.0551399 12.34239197 -0.06375122 C17.14484286 -0.08998136 21.94730252 -0.10527931 26.74980164 -0.11953735 C28.40210158 -0.12489653 30.05440146 -0.13027403 31.70670128 -0.13566971 C38.5788882 -0.15729942 45.45107275 -0.17603684 52.3232851 -0.1872921 C62.17712252 -0.20353601 72.0305659 -0.23672311 81.88425475 -0.29369295 C88.81000602 -0.33237173 95.73565181 -0.35192229 102.66150826 -0.35721266 C106.79945386 -0.36086885 110.93697929 -0.37291785 115.07480812 -0.4053154 C118.96798464 -0.43536038 122.86048599 -0.4417211 126.75375366 -0.42993164 C128.18201907 -0.4297106 129.61031547 -0.43804078 131.03847313 -0.45558548 C132.98954715 -0.47824796 134.94092689 -0.46700672 136.89208984 -0.45410156 C137.98366048 -0.45741171 139.07523111 -0.46072186 140.19987965 -0.46413231 C144.1121113 0.35921871 145.6196509 2.12534888 148.13652039 5.15390015 C149.27433637 8.16885034 149.42973852 10.95105593 149.13652039 14.15390015 C147.12064193 18.26031923 145.38827981 20.51861254 141.13652039 22.15390015 C138.39657021 22.41116905 138.39657021 22.41116905 135.19111633 22.42132568 C133.36579628 22.43412064 133.36579628 22.43412064 131.50360107 22.44717407 C130.15809618 22.44647507 128.81259139 22.44555203 127.46708679 22.44442749 C126.04767503 22.45041298 124.62826653 22.45721857 123.2088623 22.46478271 C119.355496 22.48244794 115.50221852 22.48713831 111.64881563 22.48841429 C109.24061822 22.48983615 106.83244337 22.4941064 104.42425156 22.49940872 C96.0207094 22.51791071 87.61723068 22.52607912 79.21366882 22.52450562 C71.38376442 22.52330415 63.55413564 22.54440681 55.72430098 22.57599294 C48.99890365 22.60215562 42.27359634 22.61287292 35.54814851 22.6115948 C31.53268327 22.61108516 27.51746299 22.61676917 23.50204849 22.6379509 C19.72461254 22.65733334 15.94765522 22.65745812 12.17020226 22.64291763 C10.7859127 22.64082841 9.4015932 22.64553734 8.01735497 22.65763855 C-5.04489748 22.76441085 -5.04489748 22.76441085 -9.86347961 18.15390015 C-12.33131121 14.45215275 -12.54420694 11.44896539 -11.86347961 7.15390015 C-8.52324785 1.03014191 -6.75407192 0.03451426 0 0 Z " fill="#000000" transform="translate(128.8634796142578,351.8460998535156)"/>
<path d="M0 0 C0.91884979 -0.00817749 1.83769958 -0.01635498 2.78439331 -0.02478027 C5.83371321 -0.04965038 8.88298652 -0.06615388 11.93237305 -0.08056641 C13.49240083 -0.08855192 13.49240083 -0.08855192 15.08394432 -0.09669876 C20.58801919 -0.12343658 26.09207132 -0.14281001 31.59619141 -0.15722656 C37.28611786 -0.17388159 42.97546592 -0.21866504 48.66517353 -0.26959801 C53.03605325 -0.30322506 57.40679488 -0.314799 61.77779198 -0.32045364 C63.87539277 -0.327178 65.97298411 -0.34243065 68.07045937 -0.36634445 C71.0057883 -0.39790286 73.93954652 -0.39804673 76.875 -0.390625 C77.74220169 -0.40703033 78.60940338 -0.42343567 79.50288391 -0.44033813 C83.90688107 -0.39473461 85.5911074 -0.23927251 89.14762878 2.6043396 C91.9487213 6.2590026 92.4759546 8.49731328 92.41674805 13.15771484 C91.96480484 16.38322732 90.45147206 18.00187307 88.1315918 20.19287109 C84.26025155 22.90055394 79.93677158 22.48108246 75.40332031 22.4675293 C74.08312897 22.47519569 74.08312897 22.47519569 72.73626709 22.48301697 C69.82760819 22.49691423 66.9191862 22.49595612 64.01049805 22.49365234 C61.98794975 22.49753914 59.96540226 22.50187377 57.94285583 22.50663757 C53.70357619 22.51410003 49.46437983 22.51380826 45.22509766 22.50854492 C39.79319268 22.50274964 34.36162861 22.51968267 28.92978001 22.5428896 C24.75276192 22.55762283 20.57582601 22.5584992 16.39878654 22.55537987 C14.39612083 22.55589326 12.39345054 22.56113445 10.39081001 22.57119179 C7.59006736 22.58353109 4.78998985 22.57677957 1.98925781 22.56518555 C0.74927284 22.57665115 0.74927284 22.57665115 -0.51576233 22.58834839 C-6.13216543 22.53697098 -9.18045608 21.27500468 -13.65356445 17.81005859 C-15.78232388 14.97627594 -15.32646508 12.05900045 -15.23168945 8.64208984 C-14.72683835 5.23841626 -13.38159313 3.48430441 -10.8684082 1.19287109 C-7.50511657 -0.48877472 -3.70044412 0.01805126 0 0 Z " fill="#000000" transform="translate(302.868408203125,351.80712890625)"/>
<path d="M0 0 C0.91884979 -0.0065712 1.83769958 -0.0131424 2.78439331 -0.01991272 C5.83372066 -0.0396691 8.88299872 -0.05131323 11.93237305 -0.0612793 C12.97239157 -0.06535482 14.01241009 -0.06943035 15.08394432 -0.07362938 C20.58802467 -0.09449962 26.09208002 -0.10879749 31.59619141 -0.11816406 C37.28602835 -0.12923339 42.97547474 -0.1636368 48.66517353 -0.20333576 C53.03605383 -0.22945991 57.40684047 -0.23785215 61.77779198 -0.24144554 C63.87537462 -0.24632199 65.97295279 -0.25796594 68.07045937 -0.27648354 C71.00562258 -0.30078642 73.93976733 -0.2999261 76.875 -0.29296875 C77.74220169 -0.30577881 78.60940338 -0.31858887 79.50288391 -0.33178711 C83.5812016 -0.29653488 85.6196547 -0.14624318 89.14762878 2.08137512 C92.62301285 5.75236498 92.52243844 8.79632693 92.48706055 13.69262695 C92.1315918 16.17700195 92.1315918 16.17700195 89.8190918 19.23950195 C85.20327064 22.56718697 81.00865925 22.33627886 75.53271484 22.35400391 C74.21515198 22.3638607 74.21515198 22.3638607 72.87097168 22.37391663 C69.96175044 22.3936407 67.05258078 22.40530976 64.14331055 22.4152832 C63.1495875 22.41935873 62.15586445 22.42343426 61.13202858 22.42763329 C55.87317742 22.44848942 50.61435232 22.46279358 45.35546875 22.47216797 C39.92470234 22.48323624 34.49434522 22.51764242 29.06372356 22.55733967 C24.8866754 22.58348574 20.70972511 22.59185799 16.53260231 22.59544945 C14.53074184 22.60031996 12.52888587 22.61194715 10.52710533 22.63048744 C7.72395755 22.65483776 4.92187353 22.65392144 2.11865234 22.64697266 C1.29401993 22.65978271 0.46938751 22.67259277 -0.38023376 22.68579102 C-5.66746105 22.63808635 -8.68509472 21.6990596 -12.8684082 18.17700195 C-15.3362398 14.47525456 -15.54913553 11.4720672 -14.8684082 7.17700195 C-10.88190361 -0.13158979 -7.80773869 0.02404085 0 0 Z " fill="#000000" transform="translate(131.868408203125,191.822998046875)"/>
<path d="M0 0 C1.32019135 -0.0076664 1.32019135 -0.0076664 2.66705322 -0.01548767 C5.57571212 -0.02938493 8.48413412 -0.02842682 11.39282227 -0.02612305 C13.41537057 -0.03000984 15.43791805 -0.03434448 17.46046448 -0.03910828 C21.69974412 -0.04657073 25.93894048 -0.04627896 30.17822266 -0.04101562 C35.61012763 -0.03522035 41.0416917 -0.05215337 46.47354031 -0.0753603 C50.65055839 -0.09009353 54.8274943 -0.0909699 59.00453377 -0.08785057 C61.00719948 -0.08836397 63.00986977 -0.09360515 65.0125103 -0.10366249 C67.81325295 -0.11600179 70.61333046 -0.10925027 73.4140625 -0.09765625 C74.24071915 -0.10529999 75.06737579 -0.11294373 75.91908264 -0.12081909 C81.53548575 -0.06944168 84.58377639 1.19252461 89.05688477 4.6574707 C91.1856442 7.49125335 90.72978539 10.40852885 90.63500977 13.82543945 C90.13015866 17.22911304 88.78491344 18.98322489 86.27172852 21.2746582 C82.90843688 22.95630402 79.10376443 22.44947804 75.40332031 22.4675293 C74.48447052 22.47570679 73.56562073 22.48388428 72.618927 22.49230957 C69.56960711 22.51717968 66.52033379 22.53368318 63.47094727 22.5480957 C61.91091949 22.55608122 61.91091949 22.55608122 60.31937599 22.56422806 C54.81530112 22.59096587 49.31124899 22.61033931 43.80712891 22.62475586 C38.11720245 22.64141089 32.42785439 22.68619434 26.73814678 22.7371273 C22.36726706 22.77075436 17.99652543 22.7823283 13.62552834 22.78798294 C11.52792754 22.7947073 9.4303362 22.80995995 7.33286095 22.83387375 C4.39753201 22.86543216 1.46377379 22.86557603 -1.47167969 22.8581543 C-2.33888138 22.87455963 -3.20608307 22.89096497 -4.0995636 22.90786743 C-8.50356076 22.86226391 -10.18778709 22.70680181 -13.74430847 19.8631897 C-16.54540099 16.2085267 -17.07263429 13.97021601 -17.01342773 9.30981445 C-16.56148453 6.08430198 -15.04815175 4.46565623 -12.72827148 2.2746582 C-8.85693124 -0.43302465 -4.53345127 -0.01355317 0 0 Z " fill="#000000" transform="translate(133.728271484375,137.725341796875)"/>
<path d="M0 0 C1.17147835 -0.01007584 1.17147835 -0.01007584 2.36662292 -0.02035522 C4.94581482 -0.0393372 7.52474652 -0.04325951 10.10400391 -0.04541016 C11.89995429 -0.05183798 13.69590362 -0.05856633 15.49185181 -0.06558228 C19.25614855 -0.07755555 23.02035352 -0.08126305 26.78466797 -0.08007812 C31.60227558 -0.07987494 36.41929326 -0.10717619 41.23676109 -0.14162254 C44.94630625 -0.16388768 48.65570935 -0.16791579 52.36531448 -0.16685867 C54.14108946 -0.16921525 55.91686831 -0.17804198 57.69257736 -0.19352341 C60.17958333 -0.21317586 62.66531616 -0.20734895 65.15234375 -0.1953125 C65.88189774 -0.20655151 66.61145172 -0.21779053 67.3631134 -0.22937012 C72.43060938 -0.16722063 75.29336445 1.12041188 79.20556641 4.29052734 C81.21099606 7.15948479 81.47196906 9.27753953 81.14306641 12.72802734 C81.09021484 13.46923828 81.03736328 14.21044922 80.98291016 14.97412109 C79.81208594 18.46305958 78.06122787 19.98678787 75.20556641 22.29052734 C72.24785825 22.78542133 69.86692495 22.97635848 66.91455078 22.9375 C66.09279861 22.9462616 65.27104645 22.95502319 64.4243927 22.96405029 C61.71549244 22.98600773 59.00823245 22.97150528 56.29931641 22.95458984 C54.41271655 22.95795905 52.52611881 22.96281253 50.63952637 22.96908569 C46.68851016 22.97645205 42.73805973 22.96575922 38.78710938 22.94238281 C33.72595944 22.91389509 28.66613518 22.93030034 23.60503387 22.96024513 C19.71016475 22.97832457 15.81560924 22.97255713 11.92073059 22.95960617 C10.0548334 22.95627394 8.18890761 22.96035282 6.32304382 22.97200394 C3.71345761 22.98472354 1.10600923 22.96532195 -1.50341797 22.9375 C-2.65688972 22.95268173 -2.65688972 22.95268173 -3.83366394 22.96817017 C-7.85074544 22.88894058 -9.59770859 22.45129416 -12.75012207 19.87509155 C-15.63008594 16.23403614 -16.13922634 14.01992752 -16.07958984 9.32568359 C-15.62764664 6.10017112 -14.11431386 4.48152537 -11.79443359 2.29052734 C-8.10268389 -0.19818933 -4.29622595 -0.00530802 0 0 Z " fill="#000000" transform="translate(132.79443359375,297.70947265625)"/>
<path d="M0 0 C1.00146561 -0.0159874 2.00293121 -0.03197479 3.03474426 -0.04844666 C4.6566291 -0.05649071 4.6566291 -0.05649071 6.3112793 -0.06469727 C7.4248027 -0.07372574 8.53832611 -0.08275421 9.68559265 -0.09205627 C12.04346014 -0.10657337 14.40136805 -0.11544912 16.75927734 -0.11914062 C20.36128983 -0.13102365 23.96158229 -0.18018676 27.56323242 -0.23071289 C29.85423969 -0.2401785 32.14525747 -0.24741287 34.4362793 -0.25219727 C36.0490551 -0.28149574 36.0490551 -0.28149574 37.69441223 -0.31138611 C46.05085019 -0.26114667 46.05085019 -0.26114667 49.73779297 2.71630859 C52.93185425 6.25899507 53.46743987 8.38800653 53.43237305 13.20092773 C52.79717991 16.92233101 50.73320788 18.70952498 48.07299805 21.30639648 C45.62176406 22.53201348 43.98463375 22.45296056 41.24365234 22.48339844 C40.23888351 22.49623367 39.23411469 22.50906891 38.19889832 22.52229309 C37.10934341 22.52968002 36.01978851 22.53706696 34.8972168 22.54467773 C33.77990677 22.55274948 32.66259674 22.56082123 31.51142883 22.56913757 C29.14337724 22.58298595 26.77530561 22.59370472 24.40722656 22.6015625 C20.78566667 22.61877685 17.16501905 22.66265777 13.54370117 22.70678711 C11.24487977 22.71691363 8.9460506 22.72542986 6.6472168 22.73217773 C5.56373459 22.74968582 4.48025238 22.76719391 3.36393738 22.78523254 C-4.17500432 22.76348621 -4.17500432 22.76348621 -8.06835938 20.39697266 C-10.77129457 17.3567475 -11.77327617 15.48496079 -12.30200195 11.43139648 C-11.82561694 7.46152135 -10.39659769 5.41103113 -7.92700195 2.30639648 C-4.68863053 0.1474822 -3.74547771 0.04522113 0 0 Z " fill="#000000" transform="translate(341.927001953125,244.693603515625)"/>
</svg>
